<?xml version="1.0" encoding="UTF-8"?>
<svg id="Layer_1" data-name="Layer 1" xmlns="http://www.w3.org/2000/svg" xmlns:xlink="http://www.w3.org/1999/xlink" viewBox="0 0 371.38 217.17">
  <defs>
    <style>
      .cls-1, .cls-2, .cls-3 {
        fill: none;
      }

      .cls-4 {
        fill: #e64925;
      }

      .cls-2 {
        stroke-width: 2px;
      }

      .cls-2, .cls-3 {
        stroke: #e64925;
        stroke-miterlimit: 10;
      }

      .cls-5 {
        fill: #617d37;
      }

      .cls-3 {
        stroke-width: 10px;
      }

      .cls-6 {
        clip-path: url(#clippath);
      }
    </style>
    <clipPath id="clippath">
      <rect class="cls-1" x="72.16" y="35.13" width="65.83" height="51.37"/>
    </clipPath>
  </defs>
  <g>
    <g class="cls-6">
      <path class="cls-4" d="M104.99,54.32c-16.79,0-30.4-3.75-30.4-8.37s13.61-8.36,30.4-8.36,30.4,3.74,30.4,8.36-13.61,8.37-30.4,8.37ZM137.73,44.66h0c-.45-5.28-14.93-9.52-32.74-9.52s-32.76,4.37-32.76,9.76c0,.09.02.19.02.27v.15c0,17.54,8.73,32.51,21.02,38.44.08,1.63,1.14,2.53,2.56,2.95h18.36c1.41-.42,2.47-1.32,2.54-2.95,12.29-5.92,21.02-20.9,21.02-38.44v-.23c0-.07.01-.13.01-.19,0-.08-.01-.16-.02-.25"/>
    </g>
    <path class="cls-5" d="M25.84,10.12c1.07,0,2.77.11,5.08.33,2.32.22,4.39.33,6.22.33,2.03,0,4.24-.11,6.62-.33,2.38-.22,4.04-.33,4.99-.33,1,0,1.81.3,2.41.9.61.6.92,1.41.92,2.44,0,.95-.28,1.83-.85,2.65-.46.71-.82,1.49-1.06,2.34-.25.85-.38,2.17-.38,3.95v38.71c0,1.72.25,2.8.76,3.24.52.44,1.73.66,3.62.66,1.66,0,2.91-.14,3.76-.43.86-.28,1.68-.71,2.44-1.28.5-.38.99-.64,1.47-.8.47-.15,1.06-.24,1.77-.24,1,0,1.86.32,2.55.95.71.63,1.06,1.36,1.06,2.18,0,.38-.11.97-.31,1.77-.19.79-.35,1.44-.47,1.94-1.08,3.82-1.77,7.47-2.08,10.95-.13,1.91-.4,3.3-.83,4.19-.41.88-1.37,1.32-2.88,1.32-.38,0-1.98-.11-4.8-.33-2.83-.22-7.35-.33-13.57-.33-3.8,0-9.25.22-16.34.66-1.09,0-1.96-.32-2.62-.95-.66-.63-.99-1.45-.99-2.48,0-.88.28-1.73.85-2.55.5-.71.88-1.45,1.14-2.25.25-.79.38-1.92.38-3.38V21.07c0-1.21-.11-2.12-.33-2.72-.22-.6-.56-1.28-.99-2.06-.38-.5-.65-.95-.8-1.32-.16-.38-.24-.88-.24-1.51,0-1.02.31-1.83.95-2.44.63-.6,1.49-.9,2.58-.9Z"/>
    <path class="cls-5" d="M147.14,10.12c1.21,0,2.29.04,3.24.09.96.07,2.29.18,4,.33,1.71.16,3.36.24,4.94.24,1.78,0,3.46-.11,5.04-.33,1.59-.22,2.73-.33,3.43-.33,1.02,0,1.88.42,2.58,1.25.69.82,1.42,1.99,2.2,3.5l14.26,27.79c.76,1.51,1.52,2.27,2.29,2.27s1.14-.6,1.14-1.8c0-.5-.04-1.02-.09-1.56-.07-.55-.09-1.08-.09-1.58v-16.93c0-2.09-.14-3.63-.43-4.61-.28-.98-.66-1.85-1.11-2.62-.19-.31-.37-.67-.52-1.09-.16-.41-.24-.9-.24-1.47,0-.83.28-1.57.85-2.2.58-.63,1.35-.95,2.29-.95,5.01.44,8.05.66,9.13.66,1.28,0,2.75-.11,4.42-.33,1.68-.22,3.06-.33,4.14-.33.96,0,1.74.3,2.34.9.6.6.9,1.35.9,2.25,0,.57-.08,1.06-.24,1.47-.16.41-.37.8-.61,1.18-.44.84-.79,1.65-1.04,2.44-.25.79-.38,2.01-.38,3.67v52.61c0,1.27.12,2.26.38,3,.25.73.6,1.41,1.04,2.03.57.89.85,1.77.85,2.65s-.28,1.58-.85,2.25-1.43.99-2.58.99c-1.01,0-1.93-.04-2.77-.09-.82-.07-1.95-.18-3.38-.33-1.42-.16-2.86-.24-4.3-.24-1.28,0-4.61.22-10,.66-.82,0-1.62-.3-2.39-.9-.76-.6-1.55-1.73-2.36-3.38l-14.45-28.45c-.44-.95-.82-1.54-1.11-1.8-.28-.25-.68-.38-1.18-.38-.7,0-1.04.47-1.04,1.42v21.97c0,1.41.12,2.47.38,3.19.25.73.6,1.51,1.04,2.34.63,1.01.95,1.93.95,2.74,0,.96-.3,1.74-.9,2.34-.6.6-1.44.9-2.51.9-2.67-.25-4.65-.43-5.96-.52-1.29-.09-2.36-.14-3.19-.14-.76,0-2.33.11-4.71.33-2.38.22-3.54.33-3.48.33-.95,0-1.72-.3-2.32-.9-.6-.6-.9-1.41-.9-2.44,0-.82.28-1.64.85-2.46.5-.77.88-1.57,1.14-2.39.25-.82.38-2.06.38-3.71V21.73c0-1.47-.13-2.59-.38-3.38-.25-.79-.6-1.5-1.04-2.15-.32-.5-.56-.95-.71-1.32-.16-.38-.24-.91-.24-1.61,0-.96.3-1.73.9-2.29.6-.57,1.4-.85,2.41-.85Z"/>
    <path class="cls-5" d="M254.18,8.89c2.27,0,4.91.27,7.92.8,3.03.54,5.58,1.34,7.66,2.41,1.66.84,2.72,1.58,3.19,2.25s.71,1.51.71,2.53c0,4.62.09,8.08.28,10.36.19,2.29.31,3.65.38,4.09.19,1.14.28,2.15.28,3.05,0,1.08-.35,1.93-1.04,2.58-.7.63-1.96.95-3.81.95h-6.74c-1.66,0-2.74-.27-3.24-.8-.51-.55-.85-1.45-1.04-2.72-.32-2.85-1.91-4.28-4.78-4.28-2.52,0-4.35,1.24-5.46,3.71-1.11,2.48-1.66,6.79-1.66,12.93s1.02,10.49,3.07,13.03c2.06,2.54,5.35,3.81,9.86,3.81,2.41,0,5.55-.41,9.41-1.23,2.03-.46,3.36-.69,4-.69.95,0,1.71.3,2.32.87.61.57.92,1.29.92,2.18,0,.63-.47,2.86-1.42,6.67-.52,2.16-.87,4.32-1.06,6.48-.19,2.15-.38,3.56-.57,4.26-.13.65-.82,1.3-2.06,1.96-1.23.66-3.24,1.23-6.03,1.7-2.79.47-6.37.71-10.74.71-11.35,0-19.84-3.42-25.47-10.26-5.62-6.86-8.42-16.18-8.42-27.97,0-12.94,2.88-22.74,8.65-29.39,5.78-6.65,14.07-9.98,24.85-9.98Z"/>
    <path class="cls-5" d="M288.03,10.12c1.15,0,2.78.11,4.89.33,2.13.22,4.05.33,5.77.33,1.47,0,3.36-.11,5.7-.33,2.35-.22,4.1-.33,5.25-.33,1.07,0,1.89.3,2.46.9.58.6.87,1.44.87,2.53,0,1.01-.3,1.93-.87,2.74-.44.65-.79,1.4-1.04,2.25-.25.85-.38,2.2-.38,4.04v11.14c0,1.45.22,2.44.66,2.96.44.51,1.4.76,2.86.76h5.13c1.47,0,2.4-.28,2.81-.85.41-.58.61-1.63.61-3.15v-11.8c0-1.47-.13-2.59-.38-3.38-.25-.79-.6-1.54-1.04-2.25-.59-.88-.87-1.76-.87-2.65s.3-1.66.9-2.29c.61-.63,1.42-.95,2.44-.95,5.14.44,8.66.66,10.57.66,1.64,0,3.67-.11,6.08-.33,2.41-.22,4.09-.33,5.04-.33s1.74.3,2.34.9c.6.6.9,1.41.9,2.44,0,.95-.28,1.86-.85,2.74-.44.71-.77,1.4-.99,2.06-.22.66-.33,1.57-.33,2.72v53.06c0,1.47.12,2.6.38,3.38.25.79.6,1.54,1.04,2.25.25.38.46.76.61,1.14.15.38.24.82.24,1.32,0,1.03-.3,1.86-.9,2.48-.6.63-1.38.95-2.34.95-4.75-.44-8.67-.66-11.78-.66s-5.5.11-7.12.33c-1.61.22-2.64.33-3.07.33-.95,0-1.71-.33-2.29-.99-.57-.66-.85-1.47-.85-2.44,0-.88.35-1.83,1.06-2.84.69-1.15,1.07-2.23,1.14-3.24.06-2.09.09-6.79.09-14.09,0-2.08-.19-3.43-.57-4.07-.38-.64-1.27-.97-2.67-.97h-5.51c-1.41,0-2.31.31-2.72.92-.41.6-.61,1.66-.61,3.17v13.03c0,1.41.12,2.48.38,3.24.25.76.6,1.49,1.04,2.2.58.89.87,1.77.87,2.65,0,1.09-.3,1.93-.87,2.53-.57.6-1.36.9-2.36.9-.32,0-1.65-.11-4-.33-2.35-.22-4.51-.33-6.48-.33-2.41,0-6.19.22-11.33.66-1.01,0-1.8-.3-2.36-.9-.57-.6-.85-1.44-.85-2.53,0-.76.28-1.64.85-2.65.44-.77.79-1.52,1.04-2.25.25-.72.38-1.69.38-2.91V21.26c0-1.28-.11-2.25-.33-2.91-.22-.66-.56-1.31-.99-1.96-.32-.5-.56-.95-.71-1.32-.16-.38-.24-.91-.24-1.61,0-1.09.31-1.92.95-2.48.63-.57,1.42-.85,2.36-.85Z"/>
    <path class="cls-4" d="M123.43,118.68c1.4-3.48,2.64-6.06,3.71-7.73,1.07-1.68,2.15-2.53,3.24-2.53.38,0,1.9.11,4.56.33,2.66.22,5.42.33,8.28.33,2.09,0,5.94-.22,11.52-.66,1,0,2,.82,2.98,2.44.99,1.61,2.18,4.13,3.57,7.54,3.37,8.31,6.21,17.21,8.51,26.7,2.32,9.48,4.14,18.34,5.49,26.58.25,1.53.57,2.71.95,3.52.38.82.82,1.62,1.32,2.39.38.51.64.95.8,1.32.15.38.24.89.24,1.51,0,1.09-.27,1.93-.8,2.53-.54.6-1.28.9-2.22.9-.32,0-1.9-.11-4.75-.33-2.86-.22-5.52-.33-7.99-.33-3.25,0-5.88.11-7.87.33-1.99.22-3.2.33-3.64.33-1.01,0-1.84-.33-2.48-.99-.63-.66-.95-1.54-.95-2.62,0-.69.28-1.48.85-2.36.83-1.28,1.25-2.51,1.25-3.71,0-2.03-.37-3.48-1.11-4.33-.73-.86-1.98-1.3-3.76-1.3h-10.36c-2.1,0-3.46.48-4.09,1.44-.63.95-.95,2.41-.95,4.37,0,1.2.34,2.28,1.04,3.24.06.07.22.37.47.9.25.54.38,1.15.38,1.84,0,.96-.25,1.79-.76,2.48-.51.69-1.21,1.04-2.1,1.04s-2.19-.11-3.9-.33c-1.7-.22-3.51-.33-5.42-.33-2.79,0-5.68.15-8.65.47l-1.99.19c-.96,0-1.74-.33-2.34-.99s-.9-1.5-.9-2.53c0-.5.11-.99.33-1.47.22-.47.71-1.19,1.47-2.15.44-.63.83-1.45,1.18-2.46.36-1.02.86-3.37,1.49-7.05.82-5.14,2.47-12.56,4.94-22.25,2.47-9.71,5.3-18.47,8.47-26.27ZM137.21,133.63c-2.46,6.86-3.69,11.72-3.69,14.57,0,.82.25,1.44.76,1.84.5.41,1.38.61,2.65.61h6.29c2.03,0,3.05-.85,3.05-2.55s-.4-3.98-1.21-7c-.79-3.01-1.28-4.74-1.47-5.18-1.53-4.63-2.71-6.95-3.52-6.95-.51,0-.95.32-1.32.95-.38.63-.89,1.87-1.54,3.71Z"/>
    <path class="cls-4" d="M188.75,108.42c1.38,0,3.16.11,5.32.33,2.16.22,4,.33,5.51.33,1.71,0,3.22-.03,4.52-.09,1.31-.06,3.1-.17,5.37-.33,2.28-.15,4.45-.24,6.48-.24,10.72,0,18.68,2.19,23.88,6.57,5.2,4.37,7.8,10.49,7.8,18.35,0,3.61-.61,6.98-1.82,10.1-1.2,3.11-3.16,5.57-5.89,7.4-.38.19-.89.54-1.54,1.06-.63.51-.95.85-.95,1.04s.12.44.38.76c.25.32.67.76,1.25,1.32,1.83,1.97,3.57,4.53,5.23,7.66,1.66,3.14,2.92,6.51,3.81,10.12.19.65.48,1.48.9,2.48.41,1.01.86,1.87,1.37,2.58.33.51.56.92.69,1.23.12.32.19.76.19,1.32,0,1.09-.35,1.93-1.06,2.53-.7.6-1.64.9-2.84.9s-2.76-.11-4.63-.33c-1.86-.22-4-.33-6.41-.33s-4.56.11-6.62.33c-2.05.22-3.26.33-3.64.33-.9,0-1.63-.33-2.2-.99s-.85-1.44-.85-2.34c0-.38.11-.99.33-1.84.22-.85.33-1.5.33-1.96,0-1.32-.66-3.48-1.96-6.46-1.29-2.98-2.81-5.66-4.56-8.04-1.74-2.38-3.24-3.57-4.52-3.57-.95,0-1.42.7-1.42,2.1v11.97c0,1.34.11,2.33.33,2.96.22.63.55,1.34.99,2.1.63.76.95,1.64.95,2.65s-.3,1.86-.9,2.48c-.6.63-1.37.95-2.32.95-5.77-.44-9.55-.66-11.33-.66s-3.36.08-4.92.24c-1.55.15-2.65.27-3.31.33-.66.06-1.35.09-2.06.09-1.01,0-1.83-.32-2.46-.95-.63-.63-.95-1.45-.95-2.48,0-.69.28-1.54.85-2.55.5-.71.88-1.44,1.14-2.2.25-.76.38-1.74.38-2.96v-53.16c0-1.34-.13-2.37-.38-3.1-.25-.72-.6-1.41-1.04-2.06-.25-.38-.47-.77-.66-1.18-.19-.41-.28-.9-.28-1.47,0-1.02.31-1.83.95-2.44.63-.6,1.49-.9,2.58-.9ZM211.19,129.82v10.38c0,1.27.3,2.03.9,2.32.6.28,1.63.43,3.1.43,2.98,0,5.18-.74,6.6-2.22,1.43-1.5,2.15-3.39,2.15-5.68,0-5.26-2.98-7.9-8.94-7.9h-.66c-1.15.07-1.96.28-2.44.64-.47.35-.71,1.03-.71,2.03Z"/>
    <path class="cls-4" d="M262.61,108.42c1.26,0,2.75.11,4.49.33,1.75.22,3.89.33,6.43.33s6.47-.22,11.99-.66c1,0,1.8.3,2.36.9.58.6.87,1.41.87,2.44,0,.63-.11,1.15-.33,1.56-.22.41-.37.68-.43.8-.44.71-.82,1.57-1.11,2.58-.28,1.01-.43,2.53-.43,4.56v51.67c0,1.2.11,2.13.33,2.79.22.66.56,1.35,1.02,2.06.06.07.24.33.52.8s.43,1.09.43,1.84c0,.9-.28,1.7-.83,2.39-.54.69-1.34,1.04-2.41,1.04-4.76-.44-8.57-.66-11.42-.66-2.29,0-6.22.22-11.8.66-1.01,0-1.81-.32-2.41-.95-.6-.63-.9-1.49-.9-2.58,0-.76.28-1.57.85-2.46.5-.77.88-1.52,1.14-2.25.25-.72.38-1.73.38-3v-52.87c0-1.47-.13-2.54-.38-3.24-.25-.69-.6-1.36-1.04-2.01-.07-.06-.24-.33-.52-.8s-.43-1.12-.43-1.94c0-1.09.34-1.92,1.04-2.48.69-.57,1.55-.85,2.58-.85Z"/>
    <g>
      <path class="cls-5" d="M41.85,201l-7.9,12.72h6.43l.95,3.17h-13.69l7.85-12.72h-5.79l-.95-3.17h13.1Z"/>
      <path class="cls-5" d="M58.5,201v11.4c0,1.56-.44,2.75-1.3,3.57-.85.8-2.07,1.21-3.64,1.21-.76,0-1.46-.02-2.1-.05-.65-.04-1.17-.07-1.56-.09-.4-.04-.59-.05-.59-.05l1.16-3.48s.15.02.45.05c.3.04.65.07,1.06.12.41.04.77.05,1.09.05.5,0,.93-.17,1.28-.52.36-.34.54-.92.54-1.73v-10.48h3.62Z"/>
      <path class="cls-5" d="M75.57,201v3.17h-5.49v3.17h5.25v3.17h-5.25v3.22h5.49v3.17h-9.1v-15.89h9.1Z"/>
      <path class="cls-5" d="M92.41,208.95c0-.91-.16-1.73-.47-2.44-.3-.72-.82-1.28-1.56-1.68-.74-.39-1.77-.59-3.07-.59v9.41c1.31,0,2.33-.2,3.07-.59.74-.39,1.26-.95,1.56-1.66.31-.71.47-1.53.47-2.46ZM83.66,201h4.63c1.09,0,2.11.2,3.07.59.98.38,1.83.92,2.55,1.63.74.71,1.31,1.55,1.73,2.53.43.96.64,2.02.64,3.17s-.21,2.24-.64,3.22c-.41.96-.99,1.8-1.73,2.51-.73.71-1.58,1.27-2.55,1.66-.96.4-1.99.59-3.07.59h-4.63v-15.89Z"/>
      <path class="cls-5" d="M118.12,201l-7.9,12.72h6.43l.95,3.17h-13.69l7.85-12.72h-5.79l-.95-3.17h13.1Z"/>
      <path class="cls-5" d="M143.41,201v11.4c0,1.56-.44,2.75-1.3,3.57-.85.8-2.07,1.21-3.64,1.21-.76,0-1.46-.02-2.1-.05-.65-.04-1.17-.07-1.56-.09-.4-.04-.59-.05-.59-.05l1.16-3.48s.15.02.45.05c.3.04.65.07,1.06.12.41.04.77.05,1.09.05.5,0,.93-.17,1.28-.52.36-.34.54-.92.54-1.73v-10.48h3.62Z"/>
      <path class="cls-5" d="M160.65,201l6.43,15.89h-3.9l-1.18-3.17h-6.05l-1.16,3.17h-3.9l6.41-15.89h3.36ZM160.77,210.53l-1.82-4.63-1.77,4.63h3.59Z"/>
      <path class="cls-5" d="M189.04,216.89h-5.01l-5.86-8.06v8.06h-3.62v-15.89h3.62v7.83l5.49-7.83h4.4l-5.75,7.83,6.74,8.06Z"/>
      <path class="cls-5" d="M218.75,216.89l-2.55-8.91-2.53,8.91h-4.02l-4.54-15.89h4.04l2.7,10.9h.12l2.88-10.9h2.74l2.88,10.9h.07l2.74-10.9h4.02l-4.56,15.89h-4Z"/>
      <path class="cls-5" d="M252.28,208.95c0-.91-.16-1.73-.47-2.44-.3-.72-.82-1.28-1.56-1.68-.74-.39-1.77-.59-3.07-.59v9.41c1.31,0,2.33-.2,3.07-.59.74-.39,1.26-.95,1.56-1.66.31-.71.47-1.53.47-2.46ZM243.53,201h4.63c1.09,0,2.11.2,3.07.59.98.38,1.83.92,2.55,1.63.74.71,1.31,1.55,1.73,2.53.43.96.64,2.02.64,3.17s-.21,2.24-.64,3.22c-.41.96-.99,1.8-1.73,2.51-.73.71-1.58,1.27-2.55,1.66-.96.4-1.99.59-3.07.59h-4.63v-15.89Z"/>
      <path class="cls-5" d="M267.68,208.92c0,.84.2,1.6.59,2.29.39.68.92,1.23,1.58,1.66.67.41,1.42.61,2.25.61s1.56-.2,2.22-.61c.66-.43,1.19-.98,1.58-1.66.39-.69.59-1.45.59-2.29s-.2-1.57-.59-2.25c-.4-.69-.92-1.24-1.58-1.66-.66-.41-1.41-.61-2.22-.61s-1.57.21-2.25.61c-.66.41-1.19.96-1.58,1.66-.4.68-.59,1.43-.59,2.25ZM264.08,208.92c0-1.12.2-2.16.61-3.15.41-.99.98-1.87,1.7-2.62.74-.77,1.59-1.37,2.55-1.8.98-.44,2.02-.66,3.15-.66s2.16.22,3.12.66c.98.43,1.83,1.03,2.55,1.8.72.76,1.29,1.63,1.7,2.62.41.98.61,2.03.61,3.15s-.21,2.19-.61,3.19c-.41.99-.98,1.87-1.7,2.62-.73.76-1.58,1.36-2.55,1.8-.96.43-2,.64-3.12.64s-2.17-.21-3.15-.64c-.96-.44-1.81-1.04-2.55-1.8-.73-.76-1.29-1.63-1.7-2.62-.41-1-.61-2.07-.61-3.19Z"/>
      <path class="cls-5" d="M297.7,216.8h-1.89l-4.04-9.98-.05,10.07h-3.62v-15.89h5.13l3.55,9.17,3.52-9.17h5.13v15.89h-3.59l-.05-10.07-4.09,9.98Z"/>
      <path class="cls-5" d="M326.06,201v10.24c0,1.97-.54,3.45-1.61,4.45-1.06.99-2.6,1.49-4.61,1.49s-3.56-.5-4.61-1.49c-1.06-.99-1.58-2.47-1.58-4.45v-10.24h3.62v9.17c0,.9.08,1.6.26,2.1.19.49.47.84.85,1.04.39.19.88.28,1.47.28s1.09-.09,1.47-.28c.38-.2.66-.55.85-1.04.19-.5.28-1.21.28-2.1v-9.17h3.62Z"/>
      <path class="cls-5" d="M334.55,212.35l-.43-11.35h3.41l-.45,11.35h-2.53ZM334.22,215.19c0-.46.15-.85.47-1.18.33-.33.72-.5,1.16-.5s.84.17,1.16.5c.31.33.47.73.47,1.18s-.16.87-.47,1.21c-.32.33-.7.5-1.16.5s-.83-.17-1.16-.5c-.32-.33-.47-.73-.47-1.21Z"/>
    </g>
    <g>
      <path class="cls-4" d="M76.11,120.71v15.76l-.51-14.68c-.02-.6-.52-1.08-1.11-1.08h1.62Z"/>
      <path class="cls-4" d="M74.47,120.71c-.61,0-1.1.49-1.12,1.08l-.3,11.35c0,.6-.49,1.09-1.1,1.09s-1.09-.49-1.09-1.09l-.24-11.34c-.01-.6-.5-1.09-1.11-1.09h4.96Z"/>
      <path class="cls-4" d="M76.11,137.76v45.93h-5.77l-.56-35,4.52-5.82c1.14-1.46,1.75-3.26,1.81-5.11Z"/>
      <path class="cls-4" d="M92.69,117.1c-2.47-5.19-5.7-9.39-9.69-12.61-4-3.21-8.35-5.3-13.03-6.26-4.68-.96-9.25-.67-13.69.89-4.46,1.57-8.3,4.56-11.52,8.97-3.48-3.22-7.27-5.23-11.35-6.06-4.1-.83-8.09-.65-11.99.55-3.91,1.18-7.48,3.2-10.73,6.05-3.27,2.86-5.86,6.42-7.78,10.69-1.94,4.26-2.91,9-2.91,14.23v50.14h25.79c.18-12.01.36-24,.53-36.01-4.7-1.73-8.15-7.61-8.15-14.59,0-8.35,4.95-15.12,11.06-15.12s11.06,6.77,11.06,15.12c0,7.01-3.48,12.9-8.2,14.61.2,12,.39,23.99.58,35.99h25.28v-62.98h18.16v62.98h20.3v-48.62c0-6.79-1.24-12.78-3.72-17.97Z"/>
      <path class="cls-4" d="M69.51,120.71c-.6,0-1.09.49-1.11,1.09l-.26,11.34c0,.6-.49,1.09-1.1,1.09s-1.1-.49-1.1-1.09l-.2-11.34c-.02-.6-.51-1.09-1.12-1.09h4.89Z"/>
      <path class="cls-4" d="M64.62,120.71c-.6,0-1.09.49-1.11,1.09l-.28,11.34c0,.6-.5,1.09-1.1,1.09s-1.09-.49-1.09-1.09l-.3-11.35c-.02-.59-.51-1.08-1.11-1.08h4.99Z"/>
      <path class="cls-4" d="M64.25,148.69l-.52,35h-5.78v-62.98h1.66c-.6,0-1.09.48-1.11,1.08l-.51,15.59c-.03,1.97.6,3.9,1.8,5.46l4.46,5.85Z"/>
    </g>
    <path class="cls-2" d="M115.31,7.72s2.58,5.52,0,9.76"/>
    <path class="cls-2" d="M115.27,17.62s-3.19,4.95,0,9.77"/>
    <path class="cls-2" d="M93.52,8.48s2.59,5.52,0,9.77"/>
    <path class="cls-2" d="M93.49,18.37s-3.19,4.95,0,9.76"/>
    <path class="cls-2" d="M104.81.42s2.58,5.52,0,9.76"/>
    <path class="cls-2" d="M104.77,10.32s-3.19,4.95,0,9.77"/>
    <g>
      <circle class="cls-3" cx="332.63" cy="144.85" r="33.75"/>
      <circle class="cls-4" cx="332.63" cy="144.85" r="23.29"/>
    </g>
  </g>
  <rect class="cls-4" x="42.33" y="118.99" width="15.5" height="64.7"/>
  <rect class="cls-4" x="76.09" y="118.97" width="15.5" height="64.7"/>
  <path class="cls-4" d="M63.27,183.46c-5.24.03-10.48.06-15.72.09-.06-14.89-.12-29.78-.17-44.66,3.35.46,6.7.91,10.06,1.37,3.42,4.62,4.63,6.54,4.89,7.25.04.1.21.6.56,1.22.34.61.58.84.75,1.13.49.8.32,1.67.19,2.82-.14,1.22-.05,2.45-.19,3.67-.23,2.03-.22,4.35-.28,14.59-.02,2.59-.05,6.88-.09,12.52Z"/>
</svg>