<svg xmlns="http://www.w3.org/2000/svg" xmlns:xlink="http://www.w3.org/1999/xlink" width="64" zoomAndPan="magnify" viewBox="0 0 48 48" height="64" preserveAspectRatio="xMidYMid meet" version="1.0"><defs><clipPath id="9455b731b1"><path d="M 0.488281 0 L 47.507812 0 L 47.507812 47.019531 L 0.488281 47.019531 Z M 0.488281 0 " clip-rule="nonzero"/></clipPath><clipPath id="2624698ee1"><path d="M 0.488281 0 L 46.777344 0 L 46.777344 47.019531 L 0.488281 47.019531 Z M 0.488281 0 " clip-rule="nonzero"/></clipPath><clipPath id="8e42619c7d"><path d="M 22 0 L 46.777344 0 L 46.777344 25 L 22 25 Z M 22 0 " clip-rule="nonzero"/></clipPath></defs><g clip-path="url(#9455b731b1)"><path fill="none" d="M 0.488281 0 L 47.511719 0 L 47.511719 47.019531 L 0.488281 47.019531 Z M 0.488281 0 " fill-opacity="1" fill-rule="nonzero"/><path fill="none" d="M 0.488281 0 L 47.511719 0 L 47.511719 47.019531 L 0.488281 47.019531 Z M 0.488281 0 " fill-opacity="1" fill-rule="nonzero"/></g><g clip-path="url(#2624698ee1)"><path fill="#e64a25" d="M 28.035156 47.019531 C 27.929688 47.019531 27.828125 47.011719 27.722656 47 C 23.160156 46.410156 17.726562 44.078125 13.195312 40.761719 C 9.058594 37.734375 3.664062 32.40625 1.476562 24.207031 C 1.390625 23.890625 1.371094 23.570312 1.414062 23.25 C 1.457031 22.925781 1.5625 22.625 1.726562 22.34375 C 1.886719 22.058594 2.097656 21.820312 2.359375 21.621094 C 2.617188 21.425781 2.902344 21.285156 3.21875 21.199219 C 3.53125 21.113281 3.851562 21.09375 4.175781 21.136719 C 4.496094 21.179688 4.800781 21.28125 5.082031 21.445312 C 5.363281 21.609375 5.605469 21.820312 5.800781 22.078125 C 6 22.335938 6.140625 22.625 6.226562 22.9375 C 9.605469 35.605469 22.378906 41.28125 28.199219 42.101562 C 36.566406 42.050781 41.683594 38.039062 41.683594 35.847656 C 41.683594 34.601562 40.636719 33.097656 39.015625 32.015625 C 37.449219 30.972656 36.066406 30.789062 35.582031 30.988281 C 34.515625 31.433594 33.582031 32.402344 32.675781 33.335938 C 31.378906 34.675781 29.910156 36.195312 27.773438 36.195312 C 23.265625 36.195312 16.75 29.558594 13.933594 26.046875 C 10.757812 22.089844 10.59375 20.371094 10.851562 19.210938 C 11.246094 17.4375 12.480469 16.015625 13.675781 14.640625 C 14.679688 13.484375 15.71875 12.289062 16.238281 10.941406 C 16.320312 10.730469 16.15625 9.710938 14.925781 8.269531 C 13.25 6.3125 11.125 5.347656 10.335938 5.515625 C 9.921875 5.601562 8.625 6.800781 7.253906 9.9375 C 6.117188 12.539062 5.414062 15.410156 5.414062 16.574219 C 5.417969 16.902344 5.355469 17.21875 5.234375 17.523438 C 5.109375 17.828125 4.933594 18.09375 4.703125 18.328125 C 4.46875 18.558594 4.203125 18.738281 3.902344 18.867188 C 3.597656 18.992188 3.285156 19.054688 2.957031 19.054688 C 2.628906 19.054688 2.3125 18.992188 2.011719 18.867188 C 1.707031 18.738281 1.441406 18.558594 1.210938 18.328125 C 0.980469 18.09375 0.800781 17.828125 0.679688 17.523438 C 0.554688 17.21875 0.496094 16.902344 0.496094 16.574219 C 0.496094 13.203125 3.71875 1.90625 9.304688 0.707031 C 12.589844 0.00390625 16.371094 2.394531 18.660156 5.074219 C 20.898438 7.6875 21.6875 10.46875 20.828125 12.707031 C 20 14.859375 18.550781 16.527344 17.386719 17.867188 C 16.75 18.597656 16.042969 19.414062 15.761719 19.984375 C 16.179688 20.941406 17.925781 23.503906 20.972656 26.496094 C 24.378906 29.84375 26.824219 31.171875 27.675781 31.273438 C 28.007812 31.089844 28.683594 30.390625 29.140625 29.917969 C 30.277344 28.746094 31.6875 27.289062 33.691406 26.449219 C 35.941406 25.515625 38.953125 26.0625 41.742188 27.925781 C 44.785156 29.953125 46.601562 32.914062 46.601562 35.847656 C 46.597656 41.902344 38.097656 47.019531 28.035156 47.019531 Z M 27.617188 31.300781 Z M 15.675781 19.742188 Z M 15.675781 19.742188 " fill-opacity="1" fill-rule="nonzero"/></g><g clip-path="url(#8e42619c7d)"><path fill="#e64a25" d="M 44.339844 24.710938 C 44.015625 24.710938 43.703125 24.648438 43.402344 24.523438 C 43.097656 24.398438 42.832031 24.21875 42.601562 23.988281 C 42.371094 23.757812 42.195312 23.492188 42.070312 23.191406 C 41.945312 22.890625 41.882812 22.578125 41.882812 22.25 C 41.882812 12.808594 34.207031 5.121094 24.769531 5.105469 C 23.386719 5.148438 22.242188 4.027344 22.242188 2.648438 C 22.242188 2.324219 22.304688 2.015625 22.425781 1.71875 C 22.546875 1.421875 22.71875 1.15625 22.941406 0.929688 C 23.167969 0.699219 23.425781 0.519531 23.722656 0.390625 C 24.015625 0.265625 24.324219 0.195312 24.644531 0.1875 C 24.675781 0.1875 24.707031 0.1875 24.734375 0.1875 C 36.902344 0.1875 46.800781 10.085938 46.800781 22.25 C 46.800781 22.578125 46.738281 22.890625 46.613281 23.191406 C 46.488281 23.492188 46.308594 23.757812 46.078125 23.988281 C 45.847656 24.21875 45.582031 24.398438 45.28125 24.523438 C 44.980469 24.648438 44.667969 24.710938 44.339844 24.710938 Z M 44.339844 24.710938 " fill-opacity="1" fill-rule="nonzero"/></g><path fill="#e64a25" d="M 37.121094 24.839844 L 37.089844 24.839844 C 35.730469 24.820312 34.644531 23.707031 34.664062 22.347656 L 34.667969 22.242188 C 34.667969 16.785156 30.226562 12.335938 24.765625 12.320312 C 24.730469 12.320312 24.699219 12.320312 24.664062 12.324219 C 24.339844 12.324219 24.027344 12.261719 23.726562 12.140625 C 23.425781 12.015625 23.160156 11.839844 22.929688 11.613281 C 22.699219 11.386719 22.519531 11.121094 22.394531 10.824219 C 22.269531 10.523438 22.203125 10.210938 22.199219 9.886719 C 22.195312 9.5625 22.253906 9.25 22.375 8.949219 C 22.496094 8.648438 22.671875 8.382812 22.898438 8.148438 C 23.125 7.917969 23.386719 7.734375 23.683594 7.605469 C 23.980469 7.476562 24.292969 7.410156 24.617188 7.40625 C 24.660156 7.40625 24.699219 7.402344 24.734375 7.402344 C 32.921875 7.402344 39.582031 14.0625 39.582031 22.25 C 39.582031 22.304688 39.582031 22.359375 39.582031 22.410156 C 39.5625 23.757812 38.464844 24.839844 37.121094 24.839844 Z M 37.121094 24.839844 " fill-opacity="1" fill-rule="nonzero"/><path fill="#e64a25" d="M 29.621094 24.710938 C 29.292969 24.710938 28.980469 24.648438 28.679688 24.523438 C 28.378906 24.398438 28.113281 24.21875 27.882812 23.988281 C 27.652344 23.757812 27.472656 23.492188 27.347656 23.191406 C 27.222656 22.890625 27.164062 22.578125 27.164062 22.25 C 27.164062 20.914062 26.074219 19.824219 24.738281 19.824219 C 24.410156 19.824219 24.097656 19.761719 23.796875 19.636719 C 23.496094 19.511719 23.226562 19.335938 22.996094 19.105469 C 22.765625 18.875 22.589844 18.609375 22.464844 18.308594 C 22.339844 18.007812 22.277344 17.691406 22.277344 17.367188 C 22.277344 17.039062 22.339844 16.726562 22.464844 16.425781 C 22.589844 16.125 22.765625 15.859375 22.996094 15.628906 C 23.226562 15.398438 23.496094 15.21875 23.796875 15.09375 C 24.097656 14.972656 24.410156 14.910156 24.738281 14.910156 C 28.785156 14.910156 32.078125 18.203125 32.078125 22.25 C 32.078125 22.578125 32.015625 22.890625 31.890625 23.191406 C 31.765625 23.492188 31.589844 23.757812 31.359375 23.988281 C 31.128906 24.21875 30.863281 24.398438 30.5625 24.523438 C 30.261719 24.648438 29.945312 24.710938 29.621094 24.710938 Z M 29.621094 24.710938 " fill-opacity="1" fill-rule="nonzero"/></svg>