<svg xmlns="http://www.w3.org/2000/svg" xmlns:xlink="http://www.w3.org/1999/xlink" width="64" zoomAndPan="magnify" viewBox="0 0 48 48" height="64" preserveAspectRatio="xMidYMid meet" version="1.0"><defs><clipPath id="9d55a70c79"><path d="M 0.488281 0 L 47.507812 0 L 47.507812 47.019531 L 0.488281 47.019531 Z M 0.488281 0 " clip-rule="nonzero"/></clipPath><clipPath id="8cb1917779"><path d="M 0.488281 0.546875 L 43 0.546875 L 43 33 L 0.488281 33 Z M 0.488281 0.546875 " clip-rule="nonzero"/></clipPath><clipPath id="1770e1bfb0"><path d="M 5 36 L 35 36 L 35 46.832031 L 5 46.832031 Z M 5 36 " clip-rule="nonzero"/></clipPath><clipPath id="e7677115a3"><path d="M 40 15 L 46.777344 15 L 46.777344 37 L 40 37 Z M 40 15 " clip-rule="nonzero"/></clipPath><clipPath id="fa7011f2f3"><path d="M 13 0.546875 L 33 0.546875 L 33 27 L 13 27 Z M 13 0.546875 " clip-rule="nonzero"/></clipPath><clipPath id="b143c418c1"><path d="M 15 22 L 35 22 L 35 46.832031 L 15 46.832031 Z M 15 22 " clip-rule="nonzero"/></clipPath></defs><g clip-path="url(#9d55a70c79)"><path fill="none" d="M 0.488281 0 L 47.511719 0 L 47.511719 47.019531 L 0.488281 47.019531 Z M 0.488281 0 " fill-opacity="1" fill-rule="nonzero"/><path fill="none" d="M 0.488281 0 L 47.511719 0 L 47.511719 47.019531 L 0.488281 47.019531 Z M 0.488281 0 " fill-opacity="1" fill-rule="nonzero"/></g><g clip-path="url(#8cb1917779)"><path fill="#e64a25" d="M 3.230469 32.871094 C 2.890625 32.871094 2.585938 32.773438 2.308594 32.578125 C 2.035156 32.378906 1.84375 32.121094 1.734375 31.804688 C 0.957031 29.523438 0.488281 26.523438 0.488281 23.78125 C 0.488281 10.96875 10.914062 0.546875 23.722656 0.546875 C 32.546875 0.546875 38.714844 3.414062 42.582031 9.304688 C 42.695312 9.480469 42.769531 9.671875 42.808594 9.875 C 42.84375 10.082031 42.84375 10.285156 42.800781 10.488281 C 42.757812 10.695312 42.675781 10.882812 42.558594 11.054688 C 42.441406 11.226562 42.296875 11.371094 42.121094 11.484375 C 41.945312 11.597656 41.757812 11.675781 41.550781 11.714844 C 41.347656 11.753906 41.140625 11.753906 40.9375 11.710938 C 40.734375 11.667969 40.542969 11.589844 40.371094 11.472656 C 40.199219 11.355469 40.054688 11.210938 39.9375 11.039062 C 36.65625 6.035156 31.503906 3.707031 23.722656 3.707031 C 12.65625 3.707031 3.648438 12.710938 3.648438 23.78125 C 3.648438 26.160156 4.0625 28.84375 4.726562 30.78125 C 4.765625 30.898438 4.792969 31.023438 4.804688 31.148438 C 4.8125 31.273438 4.8125 31.398438 4.792969 31.519531 C 4.773438 31.644531 4.742188 31.765625 4.695312 31.882812 C 4.648438 32 4.589844 32.109375 4.515625 32.210938 C 4.441406 32.3125 4.359375 32.40625 4.261719 32.488281 C 4.167969 32.570312 4.0625 32.640625 3.953125 32.695312 C 3.839844 32.753906 3.722656 32.796875 3.601562 32.828125 C 3.480469 32.855469 3.355469 32.871094 3.230469 32.871094 Z M 3.230469 32.871094 " fill-opacity="1" fill-rule="nonzero"/></g><g clip-path="url(#1770e1bfb0)"><path fill="#e64a25" d="M 23.722656 47.015625 C 17.292969 47.015625 10.082031 46.082031 5.375 39.167969 C 5.257812 38.992188 5.175781 38.804688 5.136719 38.601562 C 5.09375 38.394531 5.089844 38.1875 5.128906 37.984375 C 5.167969 37.777344 5.246094 37.585938 5.359375 37.410156 C 5.476562 37.238281 5.621094 37.089844 5.792969 36.972656 C 5.964844 36.855469 6.15625 36.773438 6.359375 36.730469 C 6.566406 36.6875 6.769531 36.6875 6.976562 36.726562 C 7.183594 36.765625 7.375 36.84375 7.546875 36.957031 C 7.722656 37.070312 7.871094 37.214844 7.988281 37.390625 C 11.113281 41.980469 15.671875 43.855469 23.722656 43.855469 C 26.675781 43.855469 29.515625 43.230469 32.171875 41.996094 C 32.363281 41.902344 32.5625 41.851562 32.773438 41.839844 C 32.984375 41.828125 33.191406 41.859375 33.390625 41.929688 C 33.589844 42 33.769531 42.105469 33.925781 42.25 C 34.082031 42.390625 34.207031 42.558594 34.296875 42.75 C 34.382812 42.945312 34.433594 43.144531 34.441406 43.355469 C 34.449219 43.570312 34.414062 43.773438 34.339844 43.972656 C 34.265625 44.171875 34.15625 44.347656 34.011719 44.5 C 33.867188 44.65625 33.695312 44.777344 33.503906 44.863281 C 30.429688 46.289062 27.136719 47.015625 23.722656 47.015625 Z M 23.722656 47.015625 " fill-opacity="1" fill-rule="nonzero"/></g><g clip-path="url(#e7677115a3)"><path fill="#e64a25" d="M 42.191406 36.671875 C 41.90625 36.671875 41.640625 36.597656 41.394531 36.453125 C 41.148438 36.308594 40.953125 36.109375 40.8125 35.859375 C 40.675781 35.613281 40.609375 35.34375 40.613281 35.058594 C 40.621094 34.773438 40.695312 34.507812 40.847656 34.265625 C 42.777344 31.117188 43.796875 27.492188 43.796875 23.78125 C 43.800781 21.554688 43.441406 19.390625 42.722656 17.28125 C 42.652344 17.085938 42.625 16.878906 42.640625 16.671875 C 42.652344 16.460938 42.707031 16.261719 42.796875 16.074219 C 42.890625 15.886719 43.015625 15.722656 43.171875 15.582031 C 43.328125 15.445312 43.507812 15.34375 43.707031 15.273438 C 43.902344 15.207031 44.109375 15.179688 44.316406 15.191406 C 44.527344 15.207031 44.726562 15.257812 44.914062 15.351562 C 45.101562 15.445312 45.265625 15.570312 45.402344 15.726562 C 45.542969 15.882812 45.644531 16.0625 45.710938 16.261719 C 46.546875 18.699219 46.960938 21.203125 46.957031 23.78125 C 46.957031 28.078125 45.773438 32.273438 43.539062 35.914062 C 43.394531 36.148438 43.203125 36.335938 42.964844 36.46875 C 42.722656 36.601562 42.464844 36.671875 42.191406 36.671875 Z M 42.191406 36.671875 " fill-opacity="1" fill-rule="nonzero"/></g><g clip-path="url(#fa7011f2f3)"><path fill="#e64a25" d="M 14.683594 26.285156 C 14.476562 26.285156 14.277344 26.242188 14.085938 26.164062 C 13.894531 26.085938 13.726562 25.976562 13.578125 25.832031 C 13.429688 25.683594 13.316406 25.515625 13.234375 25.328125 C 13.152344 25.136719 13.109375 24.9375 13.105469 24.730469 C 13.101562 24.417969 13.097656 24.101562 13.097656 23.78125 C 13.097656 17.792969 14.082031 12.140625 15.871094 7.863281 C 17.839844 3.144531 20.628906 0.546875 23.722656 0.546875 C 27.277344 0.546875 30.433594 4.019531 32.386719 10.066406 C 32.453125 10.265625 32.476562 10.46875 32.457031 10.679688 C 32.441406 10.886719 32.386719 11.085938 32.289062 11.273438 C 32.195312 11.457031 32.066406 11.621094 31.90625 11.753906 C 31.746094 11.890625 31.570312 11.992188 31.371094 12.054688 C 31.171875 12.117188 30.964844 12.144531 30.757812 12.125 C 30.546875 12.109375 30.351562 12.054688 30.164062 11.957031 C 29.976562 11.863281 29.816406 11.734375 29.679688 11.574219 C 29.546875 11.417969 29.445312 11.238281 29.378906 11.039062 C 27.921875 6.515625 25.753906 3.707031 23.722656 3.707031 C 22.035156 3.707031 20.1875 5.714844 18.785156 9.078125 C 17.15625 12.980469 16.257812 18.203125 16.257812 23.78125 C 16.257812 24.082031 16.261719 24.378906 16.265625 24.675781 C 16.269531 24.886719 16.234375 25.085938 16.15625 25.28125 C 16.078125 25.476562 15.96875 25.648438 15.824219 25.800781 C 15.675781 25.953125 15.507812 26.070312 15.316406 26.152344 C 15.125 26.234375 14.921875 26.28125 14.714844 26.28125 Z M 14.683594 26.285156 " fill-opacity="1" fill-rule="nonzero"/></g><g clip-path="url(#b143c418c1)"><path fill="#e64a25" d="M 23.722656 47.015625 C 20.316406 47.015625 17.34375 43.945312 15.351562 38.367188 C 15.277344 38.167969 15.242188 37.960938 15.25 37.75 C 15.257812 37.539062 15.304688 37.335938 15.394531 37.140625 C 15.480469 36.949219 15.605469 36.777344 15.761719 36.636719 C 15.917969 36.492188 16.097656 36.382812 16.296875 36.3125 C 16.5 36.242188 16.703125 36.210938 16.917969 36.222656 C 17.128906 36.234375 17.332031 36.289062 17.523438 36.382812 C 17.714844 36.476562 17.878906 36.601562 18.019531 36.761719 C 18.160156 36.921875 18.261719 37.105469 18.328125 37.304688 C 19.769531 41.347656 21.835938 43.855469 23.722656 43.855469 C 25.410156 43.855469 27.257812 41.847656 28.660156 38.484375 C 30.289062 34.582031 31.1875 29.363281 31.1875 23.78125 C 31.1875 23.574219 31.226562 23.371094 31.308594 23.175781 C 31.390625 22.984375 31.503906 22.8125 31.652344 22.664062 C 31.800781 22.515625 31.96875 22.402344 32.164062 22.324219 C 32.355469 22.242188 32.558594 22.203125 32.769531 22.203125 C 32.976562 22.203125 33.179688 22.242188 33.375 22.324219 C 33.566406 22.402344 33.738281 22.515625 33.886719 22.664062 C 34.035156 22.8125 34.148438 22.984375 34.226562 23.175781 C 34.308594 23.371094 34.347656 23.574219 34.347656 23.78125 C 34.347656 29.769531 33.363281 35.425781 31.578125 39.703125 C 29.609375 44.417969 26.816406 47.015625 23.722656 47.015625 Z M 23.722656 47.015625 " fill-opacity="1" fill-rule="nonzero"/></g><path fill="#e64a25" d="M 43.75 18.351562 L 38.957031 18.351562 C 38.746094 18.355469 38.542969 18.316406 38.347656 18.238281 C 38.152344 18.160156 37.980469 18.042969 37.828125 17.894531 C 37.679688 17.746094 37.5625 17.574219 37.484375 17.382812 C 37.402344 17.1875 37.359375 16.984375 37.359375 16.773438 C 37.359375 16.5625 37.402344 16.359375 37.484375 16.164062 C 37.5625 15.96875 37.679688 15.796875 37.828125 15.648438 C 37.980469 15.5 38.152344 15.386719 38.347656 15.308594 C 38.542969 15.230469 38.746094 15.191406 38.957031 15.191406 L 43.75 15.191406 C 43.960938 15.191406 44.164062 15.230469 44.359375 15.308594 C 44.554688 15.386719 44.726562 15.5 44.878906 15.648438 C 45.027344 15.796875 45.144531 15.96875 45.226562 16.164062 C 45.304688 16.359375 45.347656 16.5625 45.347656 16.773438 C 45.347656 16.984375 45.304688 17.1875 45.226562 17.382812 C 45.144531 17.574219 45.027344 17.746094 44.878906 17.894531 C 44.726562 18.042969 44.554688 18.160156 44.359375 18.238281 C 44.164062 18.316406 43.960938 18.355469 43.75 18.351562 Z M 43.75 18.351562 " fill-opacity="1" fill-rule="nonzero"/><path fill="#e64a25" d="M 25.429688 18.351562 L 3.695312 18.351562 C 3.484375 18.355469 3.28125 18.316406 3.085938 18.238281 C 2.890625 18.160156 2.71875 18.042969 2.570312 17.894531 C 2.417969 17.746094 2.304688 17.574219 2.222656 17.382812 C 2.140625 17.1875 2.101562 16.984375 2.101562 16.773438 C 2.101562 16.5625 2.140625 16.359375 2.222656 16.164062 C 2.304688 15.96875 2.417969 15.796875 2.570312 15.648438 C 2.71875 15.5 2.890625 15.386719 3.085938 15.308594 C 3.28125 15.230469 3.484375 15.191406 3.695312 15.191406 L 25.429688 15.191406 C 25.640625 15.191406 25.84375 15.230469 26.039062 15.308594 C 26.234375 15.386719 26.40625 15.5 26.558594 15.648438 C 26.707031 15.796875 26.824219 15.96875 26.902344 16.164062 C 26.984375 16.359375 27.027344 16.5625 27.027344 16.773438 C 27.027344 16.984375 26.984375 17.1875 26.902344 17.382812 C 26.824219 17.574219 26.707031 17.746094 26.558594 17.894531 C 26.40625 18.042969 26.234375 18.160156 26.039062 18.238281 C 25.84375 18.316406 25.640625 18.355469 25.429688 18.351562 Z M 25.429688 18.351562 " fill-opacity="1" fill-rule="nonzero"/><path fill="#e64a25" d="M 43.75 33.121094 L 21.921875 33.121094 C 21.714844 33.121094 21.515625 33.078125 21.324219 32.996094 C 21.132812 32.914062 20.964844 32.800781 20.816406 32.652344 C 20.671875 32.503906 20.558594 32.335938 20.480469 32.140625 C 20.398438 31.949219 20.359375 31.75 20.359375 31.542969 C 20.359375 31.332031 20.398438 31.132812 20.480469 30.941406 C 20.558594 30.75 20.671875 30.578125 20.816406 30.429688 C 20.964844 30.28125 21.132812 30.167969 21.324219 30.085938 C 21.515625 30.003906 21.714844 29.964844 21.921875 29.960938 L 43.75 29.960938 C 43.960938 29.960938 44.164062 29.996094 44.359375 30.078125 C 44.554688 30.15625 44.726562 30.269531 44.878906 30.417969 C 45.027344 30.566406 45.144531 30.738281 45.226562 30.933594 C 45.304688 31.128906 45.347656 31.332031 45.347656 31.542969 C 45.347656 31.753906 45.304688 31.957031 45.226562 32.148438 C 45.144531 32.34375 45.027344 32.515625 44.878906 32.664062 C 44.726562 32.8125 44.554688 32.925781 44.359375 33.007812 C 44.164062 33.085938 43.960938 33.125 43.75 33.121094 Z M 43.75 33.121094 " fill-opacity="1" fill-rule="nonzero"/><path fill="#e64a25" d="M 8.542969 33.121094 L 3.695312 33.121094 C 3.484375 33.125 3.28125 33.085938 3.085938 33.007812 C 2.890625 32.925781 2.71875 32.8125 2.570312 32.664062 C 2.417969 32.515625 2.304688 32.34375 2.222656 32.148438 C 2.140625 31.957031 2.101562 31.753906 2.101562 31.542969 C 2.101562 31.332031 2.140625 31.128906 2.222656 30.933594 C 2.304688 30.738281 2.417969 30.566406 2.570312 30.417969 C 2.71875 30.269531 2.890625 30.15625 3.085938 30.078125 C 3.28125 29.996094 3.484375 29.960938 3.695312 29.960938 L 8.542969 29.960938 C 8.75 29.964844 8.949219 30.003906 9.140625 30.085938 C 9.332031 30.167969 9.5 30.28125 9.648438 30.429688 C 9.792969 30.578125 9.90625 30.75 9.988281 30.941406 C 10.066406 31.132812 10.105469 31.332031 10.105469 31.542969 C 10.105469 31.75 10.066406 31.949219 9.988281 32.140625 C 9.90625 32.335938 9.792969 32.503906 9.648438 32.652344 C 9.5 32.800781 9.332031 32.914062 9.140625 32.996094 C 8.949219 33.078125 8.75 33.121094 8.542969 33.121094 Z M 8.542969 33.121094 " fill-opacity="1" fill-rule="nonzero"/><path fill="#e64a25" d="M 32.339844 20.984375 C 30.054688 20.984375 28.195312 19.121094 28.195312 16.835938 C 28.195312 14.550781 30.054688 12.6875 32.339844 12.6875 C 34.628906 12.6875 36.488281 14.546875 36.488281 16.835938 C 36.488281 19.121094 34.628906 20.984375 32.339844 20.984375 Z M 32.339844 14.664062 C 32.054688 14.664062 31.777344 14.71875 31.511719 14.828125 C 31.242188 14.9375 31.007812 15.097656 30.804688 15.300781 C 30.601562 15.503906 30.445312 15.738281 30.335938 16.003906 C 30.222656 16.269531 30.167969 16.546875 30.167969 16.835938 C 30.167969 17.125 30.222656 17.402344 30.335938 17.667969 C 30.445312 17.933594 30.601562 18.167969 30.804688 18.371094 C 31.007812 18.574219 31.242188 18.734375 31.511719 18.84375 C 31.777344 18.953125 32.054688 19.007812 32.339844 19.007812 C 32.628906 19.007812 32.90625 18.953125 33.171875 18.84375 C 33.4375 18.734375 33.675781 18.574219 33.878906 18.371094 C 34.082031 18.167969 34.238281 17.933594 34.347656 17.667969 C 34.460938 17.402344 34.515625 17.125 34.515625 16.835938 C 34.515625 16.546875 34.457031 16.269531 34.347656 16.003906 C 34.238281 15.738281 34.082031 15.503906 33.878906 15.300781 C 33.671875 15.097656 33.4375 14.941406 33.171875 14.828125 C 32.90625 14.71875 32.628906 14.664062 32.339844 14.664062 Z M 32.339844 14.664062 " fill-opacity="1" fill-rule="nonzero"/><path fill="#e64a25" d="M 15.160156 35.597656 C 12.871094 35.597656 11.011719 33.738281 11.011719 31.453125 C 11.011719 29.164062 12.871094 27.304688 15.160156 27.304688 C 17.445312 27.304688 19.304688 29.164062 19.304688 31.453125 C 19.304688 33.738281 17.445312 35.597656 15.160156 35.597656 Z M 15.160156 29.277344 C 14.871094 29.277344 14.59375 29.332031 14.328125 29.445312 C 14.0625 29.554688 13.824219 29.710938 13.621094 29.914062 C 13.417969 30.117188 13.261719 30.355469 13.152344 30.621094 C 13.042969 30.886719 12.984375 31.164062 12.984375 31.453125 C 12.984375 31.738281 13.042969 32.015625 13.152344 32.28125 C 13.261719 32.550781 13.417969 32.785156 13.621094 32.988281 C 13.824219 33.191406 14.0625 33.347656 14.328125 33.457031 C 14.59375 33.570312 14.871094 33.625 15.160156 33.625 C 15.445312 33.625 15.722656 33.570312 15.988281 33.457031 C 16.257812 33.347656 16.492188 33.191406 16.695312 32.988281 C 16.898438 32.785156 17.054688 32.550781 17.164062 32.28125 C 17.277344 32.015625 17.332031 31.738281 17.332031 31.453125 C 17.332031 31.164062 17.277344 30.886719 17.164062 30.621094 C 17.054688 30.355469 16.898438 30.121094 16.695312 29.917969 C 16.492188 29.710938 16.253906 29.554688 15.988281 29.445312 C 15.722656 29.335938 15.445312 29.28125 15.160156 29.277344 Z M 15.160156 29.277344 " fill-opacity="1" fill-rule="nonzero"/><path fill="#e64a25" d="M 38.070312 43.894531 C 35.78125 43.894531 33.921875 42.035156 33.921875 39.746094 C 33.921875 37.460938 35.78125 35.597656 38.070312 35.597656 C 40.355469 35.597656 42.21875 37.460938 42.21875 39.746094 C 42.21875 42.035156 40.355469 43.894531 38.070312 43.894531 Z M 38.070312 37.574219 C 37.78125 37.574219 37.503906 37.628906 37.238281 37.738281 C 36.972656 37.847656 36.738281 38.007812 36.53125 38.210938 C 36.328125 38.414062 36.171875 38.648438 36.0625 38.914062 C 35.953125 39.179688 35.898438 39.457031 35.898438 39.746094 C 35.898438 40.035156 35.953125 40.3125 36.0625 40.578125 C 36.171875 40.84375 36.328125 41.078125 36.53125 41.28125 C 36.738281 41.484375 36.972656 41.644531 37.238281 41.753906 C 37.503906 41.863281 37.78125 41.917969 38.070312 41.917969 C 38.359375 41.917969 38.632812 41.863281 38.902344 41.753906 C 39.167969 41.644531 39.402344 41.488281 39.605469 41.28125 C 39.808594 41.078125 39.964844 40.84375 40.078125 40.578125 C 40.1875 40.3125 40.242188 40.035156 40.242188 39.746094 C 40.242188 39.457031 40.1875 39.179688 40.074219 38.914062 C 39.964844 38.648438 39.808594 38.414062 39.605469 38.210938 C 39.402344 38.007812 39.167969 37.851562 38.902344 37.738281 C 38.632812 37.628906 38.355469 37.574219 38.070312 37.574219 Z M 38.070312 37.574219 " fill-opacity="1" fill-rule="nonzero"/></svg>